<mxfile host="app.diagrams.net" agent="Mozilla/5.0 (Windows NT 10.0; Win64; x64; rv:132.0) Gecko/20100101 Firefox/132.0" version="24.8.6">
  <diagram name="Page-1" id="0783ab3e-0a74-02c8-0abd-f7b4e66b4bec">
    <mxGraphModel dx="1050" dy="529" grid="1" gridSize="10" guides="1" tooltips="1" connect="1" arrows="1" fold="1" page="1" pageScale="1" pageWidth="850" pageHeight="1100" background="none" math="0" shadow="0">
      <root>
        <mxCell id="0" />
        <mxCell id="1" parent="0" />
        <mxCell id="H06j01WUZvoX3QKMt4aF-4" value="" style="edgeStyle=orthogonalEdgeStyle;rounded=0;orthogonalLoop=1;jettySize=auto;html=1;" parent="1" source="H06j01WUZvoX3QKMt4aF-1" target="H06j01WUZvoX3QKMt4aF-2" edge="1">
          <mxGeometry relative="1" as="geometry" />
        </mxCell>
        <mxCell id="H06j01WUZvoX3QKMt4aF-1" value="" style="ellipse;fillColor=strokeColor;html=1;" parent="1" vertex="1">
          <mxGeometry x="400" y="110" width="30" height="30" as="geometry" />
        </mxCell>
        <mxCell id="H06j01WUZvoX3QKMt4aF-20" style="edgeStyle=orthogonalEdgeStyle;rounded=0;orthogonalLoop=1;jettySize=auto;html=1;exitX=0.5;exitY=1;exitDx=0;exitDy=0;entryX=0.5;entryY=0;entryDx=0;entryDy=0;" parent="1" source="H06j01WUZvoX3QKMt4aF-2" target="H06j01WUZvoX3QKMt4aF-8" edge="1">
          <mxGeometry relative="1" as="geometry" />
        </mxCell>
        <mxCell id="H06j01WUZvoX3QKMt4aF-2" value="Initialization" style="rounded=1;whiteSpace=wrap;html=1;" parent="1" vertex="1">
          <mxGeometry x="355" y="180" width="120" height="60" as="geometry" />
        </mxCell>
        <mxCell id="H06j01WUZvoX3QKMt4aF-29" value="" style="edgeStyle=orthogonalEdgeStyle;rounded=0;orthogonalLoop=1;jettySize=auto;html=1;" parent="1" source="H06j01WUZvoX3QKMt4aF-6" target="H06j01WUZvoX3QKMt4aF-28" edge="1">
          <mxGeometry relative="1" as="geometry" />
        </mxCell>
        <mxCell id="H06j01WUZvoX3QKMt4aF-6" value="Data Processing" style="rounded=1;whiteSpace=wrap;html=1;" parent="1" vertex="1">
          <mxGeometry x="355" y="930" width="120" height="60" as="geometry" />
        </mxCell>
        <mxCell id="H06j01WUZvoX3QKMt4aF-11" value="" style="edgeStyle=orthogonalEdgeStyle;rounded=0;orthogonalLoop=1;jettySize=auto;html=1;" parent="1" source="H06j01WUZvoX3QKMt4aF-8" target="H06j01WUZvoX3QKMt4aF-9" edge="1">
          <mxGeometry relative="1" as="geometry" />
        </mxCell>
        <mxCell id="H06j01WUZvoX3QKMt4aF-8" value="Increment Physics" style="rounded=1;whiteSpace=wrap;html=1;" parent="1" vertex="1">
          <mxGeometry x="355" y="270" width="120" height="60" as="geometry" />
        </mxCell>
        <mxCell id="H06j01WUZvoX3QKMt4aF-12" value="" style="edgeStyle=orthogonalEdgeStyle;rounded=0;orthogonalLoop=1;jettySize=auto;html=1;" parent="1" source="H06j01WUZvoX3QKMt4aF-9" target="H06j01WUZvoX3QKMt4aF-10" edge="1">
          <mxGeometry relative="1" as="geometry" />
        </mxCell>
        <mxCell id="H06j01WUZvoX3QKMt4aF-9" value="Get Collision Data" style="rounded=1;whiteSpace=wrap;html=1;" parent="1" vertex="1">
          <mxGeometry x="355" y="360" width="120" height="60" as="geometry" />
        </mxCell>
        <mxCell id="H06j01WUZvoX3QKMt4aF-17" value="" style="edgeStyle=orthogonalEdgeStyle;rounded=0;orthogonalLoop=1;jettySize=auto;html=1;" parent="1" source="H06j01WUZvoX3QKMt4aF-10" target="H06j01WUZvoX3QKMt4aF-14" edge="1">
          <mxGeometry relative="1" as="geometry" />
        </mxCell>
        <mxCell id="H06j01WUZvoX3QKMt4aF-10" value="Agents play game" style="rounded=1;whiteSpace=wrap;html=1;" parent="1" vertex="1">
          <mxGeometry x="355" y="450" width="120" height="60" as="geometry" />
        </mxCell>
        <mxCell id="H06j01WUZvoX3QKMt4aF-18" value="" style="edgeStyle=orthogonalEdgeStyle;rounded=0;orthogonalLoop=1;jettySize=auto;html=1;" parent="1" source="H06j01WUZvoX3QKMt4aF-14" target="H06j01WUZvoX3QKMt4aF-15" edge="1">
          <mxGeometry relative="1" as="geometry" />
        </mxCell>
        <mxCell id="H06j01WUZvoX3QKMt4aF-14" value="&lt;div&gt;Update strategies&lt;/div&gt;&lt;div&gt;Update History&lt;br&gt;&lt;/div&gt;" style="rounded=1;whiteSpace=wrap;html=1;" parent="1" vertex="1">
          <mxGeometry x="355" y="540" width="120" height="60" as="geometry" />
        </mxCell>
        <mxCell id="H06j01WUZvoX3QKMt4aF-19" value="" style="edgeStyle=orthogonalEdgeStyle;rounded=0;orthogonalLoop=1;jettySize=auto;html=1;" parent="1" source="H06j01WUZvoX3QKMt4aF-15" target="H06j01WUZvoX3QKMt4aF-16" edge="1">
          <mxGeometry relative="1" as="geometry" />
        </mxCell>
        <mxCell id="H06j01WUZvoX3QKMt4aF-15" value="Push agents" style="rounded=1;whiteSpace=wrap;html=1;" parent="1" vertex="1">
          <mxGeometry x="355" y="630" width="120" height="60" as="geometry" />
        </mxCell>
        <mxCell id="H06j01WUZvoX3QKMt4aF-23" value="" style="edgeStyle=orthogonalEdgeStyle;rounded=0;orthogonalLoop=1;jettySize=auto;html=1;" parent="1" source="H06j01WUZvoX3QKMt4aF-16" target="H06j01WUZvoX3QKMt4aF-22" edge="1">
          <mxGeometry relative="1" as="geometry" />
        </mxCell>
        <mxCell id="H06j01WUZvoX3QKMt4aF-16" value="Draw Agents" style="rounded=1;whiteSpace=wrap;html=1;" parent="1" vertex="1">
          <mxGeometry x="355" y="720" width="120" height="60" as="geometry" />
        </mxCell>
        <mxCell id="H06j01WUZvoX3QKMt4aF-24" value="" style="edgeStyle=orthogonalEdgeStyle;rounded=0;orthogonalLoop=1;jettySize=auto;html=1;" parent="1" source="H06j01WUZvoX3QKMt4aF-22" target="H06j01WUZvoX3QKMt4aF-6" edge="1">
          <mxGeometry relative="1" as="geometry" />
        </mxCell>
        <mxCell id="H06j01WUZvoX3QKMt4aF-26" style="edgeStyle=orthogonalEdgeStyle;rounded=0;orthogonalLoop=1;jettySize=auto;html=1;exitX=0;exitY=0.5;exitDx=0;exitDy=0;entryX=0;entryY=0.5;entryDx=0;entryDy=0;" parent="1" source="H06j01WUZvoX3QKMt4aF-22" target="H06j01WUZvoX3QKMt4aF-8" edge="1">
          <mxGeometry relative="1" as="geometry" />
        </mxCell>
        <mxCell id="H06j01WUZvoX3QKMt4aF-22" value="Round &amp;gt; Max round?" style="rhombus;whiteSpace=wrap;html=1;" parent="1" vertex="1">
          <mxGeometry x="310" y="820" width="210" height="80" as="geometry" />
        </mxCell>
        <mxCell id="H06j01WUZvoX3QKMt4aF-25" value="&lt;div&gt;Yes&lt;/div&gt;&lt;div&gt;&lt;br&gt;&lt;/div&gt;" style="text;html=1;align=center;verticalAlign=middle;resizable=0;points=[];autosize=1;strokeColor=none;fillColor=none;" parent="1" vertex="1">
          <mxGeometry x="420" y="893" width="40" height="40" as="geometry" />
        </mxCell>
        <mxCell id="H06j01WUZvoX3QKMt4aF-27" value="&lt;div&gt;No&lt;/div&gt;" style="text;html=1;align=center;verticalAlign=middle;resizable=0;points=[];autosize=1;strokeColor=none;fillColor=none;" parent="1" vertex="1">
          <mxGeometry x="240" y="830" width="40" height="30" as="geometry" />
        </mxCell>
        <mxCell id="H06j01WUZvoX3QKMt4aF-28" value="" style="ellipse;html=1;shape=endState;fillColor=strokeColor;" parent="1" vertex="1">
          <mxGeometry x="400" y="1030" width="30" height="30" as="geometry" />
        </mxCell>
      </root>
    </mxGraphModel>
  </diagram>
</mxfile>
